<svg xmlns="http://www.w3.org/2000/svg" width="169.968" height="111.896" viewBox="0 0 169.968 111.896">
  <g id="Group_5" data-name="Group 5" transform="translate(-0.011)">
    <path id="Path_1994" data-name="Path 1994" d="M224.937,178.911q-.294,1.545-.7,3.058c-.03.117-.063.233-.1.35h-3.81a1.225,1.225,0,0,0-1.224,1.224v10.863c-.115.215-.233.428-.35.642-.605,1.1-1.235,2.191-1.878,3.266A124.18,124.18,0,0,1,174.261,240.9l1.035-2.336-1.14-.079c-8.262-.565-16.553-1.191-24.621-3.048-8.441-1.943-16.7-5.312-23.313-10.9s-11.468-13.57-12.141-22.2a25.335,25.335,0,0,1,.887-8.815,22.635,22.635,0,0,1,9.829-13.405c7.68-4.608,17.7-3.669,25.794.164s14.683,10.174,21.117,16.406a81.561,81.561,0,0,0-26.389-27.545c-3.6-2.3-7.411-4.351-10.467-7.332s-5.309-7.157-4.769-11.391c.614-4.8,4.547-8.446,8.486-11.256,1.574-1.123,3.2-2.188,4.874-3.167a42.2,42.2,0,0,1,15.24-5.634c7.315-1.051,15.215.544,20.823,5.356,6.318,5.423,8.909,14.168,8.663,22.533,3.892-5.659,9.9-9.99,16.675-10.174,7.038-.189,13.729,4.258,17.254,10.354S226.254,171.995,224.937,178.911Z" transform="translate(-113.998 -130.052)" fill="#e6e6e6"/>
    <path id="Path_1995" data-name="Path 1995" d="M492.346,299.376a62.661,62.661,0,0,0,11.925-1.918,21.952,21.952,0,0,0,10.355-5.925c2.965-3.221,4.565-7.4,5.694-11.569.63-2.322,1.147-4.676,1.635-7.031q.794-3.833,1.412-7.7,1.229-7.7,1.754-15.485.063-.945.116-1.891c.022-.389-.583-.388-.605,0q-.432,7.677-1.554,15.293c-.738,4.989-1.682,9.956-2.88,14.856-1.015,4.151-2.329,8.366-4.932,11.821a19.806,19.806,0,0,1-9.774,6.623,53.991,53.991,0,0,1-12.006,2.185c-.5.047-.644.092-1.141.135C491.961,298.8,491.957,299.41,492.346,299.376Z" transform="translate(-425.937 -227.016)" fill="#fff"/>
    <path id="Path_1996" data-name="Path 1996" d="M120.115,492.7a65.576,65.576,0,0,1,15.336,2.7,66.274,66.274,0,0,1,14.282,6.217,64.658,64.658,0,0,1,12.027,9.056,66.252,66.252,0,0,1,9.4,11.2,65.591,65.591,0,0,1,6.723,13.033q.32.841.616,1.691c.128.365.712.208.583-.161a66.21,66.21,0,0,0-6.423-13.357,67.071,67.071,0,0,0-9.215-11.61,65.393,65.393,0,0,0-11.765-9.389,66.784,66.784,0,0,0-29.653-9.858q-.952-.08-1.907-.131c-.389-.021-.388.584,0,.605Z" transform="translate(-118.795 -428.788)" fill="#fff"/>
    <path id="Path_1997" data-name="Path 1997" d="M282.272,165.268a35.638,35.638,0,0,1,9.356,4.572,43.934,43.934,0,0,1,7.986,7.093,58.8,58.8,0,0,1,6.613,9.114,77.758,77.758,0,0,1,5.258,10.691,96.728,96.728,0,0,1,3.829,11.628,109.317,109.317,0,0,1,3.5,24.367,96.787,96.787,0,0,1-.346,11.72,74.649,74.649,0,0,1-1.76,10.79,50.987,50.987,0,0,1-3.175,9.33q-.472,1.021-1,2.015c-.183.344.339.65.522.305a46.637,46.637,0,0,0,3.573-8.993,69.651,69.651,0,0,0,2.131-10.579,92.05,92.05,0,0,0,.7-11.7,107.327,107.327,0,0,0-.732-12.291,110.71,110.71,0,0,0-2.132-12.281,100.218,100.218,0,0,0-3.564-11.961,83.224,83.224,0,0,0-4.956-11.007,63.809,63.809,0,0,0-6.355-9.592,47.316,47.316,0,0,0-7.763-7.693,37.542,37.542,0,0,0-9.1-5.252q-1.2-.477-2.427-.862C282.061,164.567,281.9,165.151,282.272,165.268Z" transform="translate(-252.664 -158.616)" fill="#fff"/>
    <ellipse id="Ellipse_49" data-name="Ellipse 49" cx="43.279" cy="1.749" rx="43.279" ry="1.749" transform="translate(22.218 108.398)" fill="#e6e6e6"/>
    <path id="Path_1998" data-name="Path 1998" d="M653.728,440.055a1.833,1.833,0,0,0-.042.287l-7.512,4.334-1.826-1.051-1.946,2.548,3.906,2.784,8.57-6.761a1.835,1.835,0,1,0-1.15-2.141Z" transform="translate(-549.993 -384.678)" fill="#ffb8b8"/>
    <path id="Path_1999" data-name="Path 1999" d="M604.724,441.994l5.915,4.216,2.645-3.317-5.75-4.613a2.33,2.33,0,0,0-3.356.465h0A2.33,2.33,0,0,0,604.724,441.994Z" transform="translate(-518.097 -383.958)" fill="#e91e63"/>
    <path id="Path_2000" data-name="Path 2000" d="M425.519,569.212l2.074.543,3.083-7.74-3.061-.8Z" transform="translate(-351.101 -463.076)" fill="#ffb8b8"/>
    <path id="Path_2001" data-name="Path 2001" d="M0,0H6.738V2.6H2.6A2.6,2.6,0,0,1,0,0H0Z" transform="matrix(-0.967, -0.253, 0.253, -0.967, 79.987, 109.653)" fill="#2f2e41"/>
    <path id="Path_2002" data-name="Path 2002" d="M524.081,574.365l2.11-.377-.45-8.32-3.115.556Z" transform="translate(-431.228 -466.752)" fill="#ffb8b8"/>
    <path id="Path_2003" data-name="Path 2003" d="M0,0H6.738V2.6H2.6A2.6,2.6,0,0,1,0,0H0Z" transform="translate(99.383 108.468) rotate(169.872)" fill="#2f2e41"/>
    <path id="Path_2004" data-name="Path 2004" d="M603.8,393.076a2.014,2.014,0,0,1,1.2,1.27,8.861,8.861,0,0,1,.473,2,8.038,8.038,0,0,1-.022,3.818,2.454,2.454,0,0,1-2.892,1.76,3.947,3.947,0,0,1-2.312-3.077,7.451,7.451,0,0,1,.511-4.386,3.567,3.567,0,0,1,1.338-1.717,1.32,1.32,0,0,1,1.761.367" transform="translate(-515.101 -346.647)" fill="#2f2e41"/>
    <path id="Path_2005" data-name="Path 2005" d="M555.076,526.948l4.018,35.986-3.318,1.26-6.12-24.131-8.521,22.064-3.632.2s4.984-34.332,8.677-35.112Z" transform="translate(-463.436 -457.544)" fill="#2f2e41"/>
    <circle id="Ellipse_50" data-name="Ellipse 50" cx="4.295" cy="4.295" r="4.295" transform="translate(83.97 42.431)" fill="#ffb8b8"/>
    <path id="Path_2006" data-name="Path 2006" d="M591.632,429.271l-4.641-.605a15.47,15.47,0,0,0-2.825,9.888c.2,6.256-.5,8.173-.5,8.173l9.677.175C591.94,444.978,597.791,433.93,591.632,429.271Z" transform="translate(-501.524 -376.449)" fill="#e91e63"/>
    <path id="Path_2007" data-name="Path 2007" d="M594.6,492.529a1.842,1.842,0,0,0-.289.025l-5.938-6.321.605-2.018-2.926-1.312-1.816,4.439,8.543,6.8a1.835,1.835,0,1,0,1.821-1.609Z" transform="translate(-502 -421.202)" fill="#ffb8b8"/>
    <path id="Path_2008" data-name="Path 2008" d="M593.336,439.357l-2.75,6.722,3.834,1.816,3.175-6.653a2.33,2.33,0,0,0-1.221-3.16h0A2.33,2.33,0,0,0,593.336,439.357Z" transform="translate(-507.237 -384.075)" fill="#e91e63"/>
    <path id="Path_2009" data-name="Path 2009" d="M579.87,376.2c.673-.388.745-1.325.653-2.1a3.2,3.2,0,0,1,.209-2.262c.541-.753,1.629-.768,2.556-.792s2.056-.3,2.3-1.192a1.6,1.6,0,0,0-.668-1.6,4.689,4.689,0,0,0-1.689-.692,10.376,10.376,0,0,0-4.051-.509,5.165,5.165,0,0,0-4.4,5.767c.22,1.723.538,2.475.329,3.234-.39,1.415-2.069,2.324-2.1,3.79-.026,1.147.987,2.033,1.976,2.615a6.633,6.633,0,0,0,2.535.962,3.232,3.232,0,0,0,2.551-.712,3.438,3.438,0,0,0,.834-3.258,9.971,9.971,0,0,0-1.52-3.156" transform="translate(-492.729 -325.567)" fill="#2f2e41"/>
    <path id="Path_2010" data-name="Path 2010" d="M776.653,426.948H714.576A1.576,1.576,0,0,0,713,428.522v39.869a1.576,1.576,0,0,0,1.574,1.574h62.077a1.576,1.576,0,0,0,1.574-1.574V428.522A1.576,1.576,0,0,0,776.653,426.948Zm1.224,41.443a1.225,1.225,0,0,1-1.224,1.224H714.576a1.225,1.225,0,0,1-1.224-1.224V428.522a1.225,1.225,0,0,1,1.224-1.224h62.077a1.225,1.225,0,0,1,1.224,1.224Z" transform="translate(-608.248 -375.031)" fill="#3f3d56"/>
    <path id="Path_2011" data-name="Path 2011" d="M744.556,480.209h-9.792a1.488,1.488,0,0,1-1.486-1.486V468.93a1.488,1.488,0,0,1,1.486-1.486h9.792a1.488,1.488,0,0,1,1.486,1.486v9.792A1.488,1.488,0,0,1,744.556,480.209Z" transform="translate(-624.977 -408.445)" fill="#e91e63"/>
    <path id="Path_2012" data-name="Path 2012" d="M790.757,589.226H735.15a1.137,1.137,0,1,1,0-2.273h55.607a1.137,1.137,0,0,1,0,2.273Z" transform="translate(-625.585 -507.057)" fill="#ccc"/>
    <path id="Path_2013" data-name="Path 2013" d="M790.971,557.726H735.363a1.137,1.137,0,0,1,0-2.273h55.607a1.137,1.137,0,1,1,0,2.273Z" transform="translate(-625.761 -481.065)" fill="#ccc"/>
    <path id="Path_2014" data-name="Path 2014" d="M857.582,514.716h-8.219a1.137,1.137,0,0,1,0-2.273h8.219a1.137,1.137,0,1,1,0,2.273Z" transform="translate(-719.826 -445.576)" fill="#ccc"/>
    <path id="Path_2015" data-name="Path 2015" d="M885.036,482.726H849.363a1.137,1.137,0,0,1,0-2.273h35.673a1.137,1.137,0,1,1,0,2.273Z" transform="translate(-719.826 -419.18)" fill="#ccc"/>
    <path id="Path_2016" data-name="Path 2016" d="M761.942,621.226H735.15a1.137,1.137,0,1,1,0-2.273h26.792a1.137,1.137,0,0,1,0,2.273Z" transform="translate(-625.585 -533.461)" fill="#ccc"/>
  </g>
</svg>
